<svg width="32" height="32" viewBox="0 0 32 32" fill="none" xmlns="http://www.w3.org/2000/svg">
<path d="M15.9998 0.570537C13.0647 0.567099 10.1902 1.40515 7.71685 2.98543C7.81922 3.2058 7.76335 3.46729 7.57991 3.6266C6.97599 4.2034 6.68999 4.99795 6.16738 5.6395C5.52539 6.33949 4.74853 6.90248 3.88342 7.29459C3.69255 7.4004 3.45912 7.39328 3.27506 7.27609C-0.7353 13.1273 -0.23881 20.9591 4.47829 26.257C9.19538 31.555 16.9173 32.9535 23.1929 29.6464C29.4684 26.3393 32.6801 19.1791 30.9765 12.2931C29.273 5.40707 23.0934 0.570162 15.9998 0.570537Z" fill="#A4C2F7"/>
<path d="M14.2855 0.570527C14.0651 0.570527 13.8465 0.577839 13.6284 0.587089C13.1198 1.62551 11.9761 1.86263 10.9026 1.91775C10.5041 1.93819 9.86486 1.87294 9.24856 1.89125C9.26074 2.05431 9.20874 2.21562 9.10368 2.34087C8.84406 2.6373 8.51551 2.86529 8.14701 3.00473C8.15201 3.21354 8.05333 3.41128 7.88339 3.53278C7.45878 3.83703 7.01829 4.11846 6.5638 4.37589C6.65267 4.5927 6.60273 4.84169 6.43711 5.0075C6.27824 5.20019 6.18393 5.43793 6.16749 5.68712C6.07468 6.01473 5.73594 6.20704 5.40707 6.11886C5.28601 6.08461 5.1802 6.01023 5.10701 5.90792C4.87201 6.11061 4.66339 6.34198 4.48615 6.59672C4.28646 6.91534 4.24853 7.31133 3.96872 7.58689C3.83479 7.7402 3.64248 7.83001 3.43898 7.83432C3.23548 7.83857 3.03955 7.75695 2.8993 7.60939C2.13232 8.59131 1.7967 10.3353 1.39683 11.3869C1.21409 11.8674 1.02546 12.3447 0.830968 12.819C0.877217 13.9159 0.508974 14.9383 0.47535 16.0465C0.4701 16.0926 0.459475 16.1379 0.443726 16.1815C0.879967 18.5657 1.25477 20.8077 2.81349 22.9963C3.63366 24.1479 4.04341 25.372 4.77102 26.5528C5.65756 27.9914 7.30041 28.6758 8.64519 29.6078C8.79369 29.7034 8.89431 29.858 8.92169 30.0325C9.54399 30.3506 10.1791 30.6441 10.788 30.9887C10.8082 31.0014 10.8277 31.0151 10.8464 31.0298C16.6235 32.3528 22.6478 30.2487 26.3449 25.6165C30.042 20.9843 30.758 14.6434 28.1868 9.30342C25.6156 3.96346 20.2122 0.568902 14.2855 0.570527Z" fill="#E3E7F2"/>
<path d="M16.2855 31.4519C16.5732 31.4519 16.8587 31.4425 17.1426 31.427C9.02068 30.9821 2.28575 24.8032 2.28575 16.5702C2.28613 8.38273 8.68207 1.62149 16.8569 1.16681C16.573 1.15125 16.2875 1.14194 15.9998 1.14194C7.47902 1.14194 0.571533 8.04943 0.571533 16.5702C0.571533 25.091 7.76464 31.4519 16.2855 31.4519Z" fill="white"/>
<path d="M22.8568 10.2846H9.14272C8.82716 10.2846 8.57129 10.0288 8.57129 9.71315C8.57129 9.39753 8.8271 9.14172 9.14272 9.14172H22.8568C23.1723 9.14172 23.4282 9.39753 23.4282 9.71315C23.4282 10.0288 23.1723 10.2846 22.8568 10.2846Z" fill="#428DFF"/>
<path d="M22.8568 16.5702H9.14272C8.82716 16.5702 8.57129 16.3144 8.57129 15.9988C8.57129 15.6831 8.8271 15.4273 9.14272 15.4273H22.8568C23.1723 15.4273 23.4282 15.6831 23.4282 15.9988C23.4282 16.3144 23.1723 16.5702 22.8568 16.5702Z" fill="#428DFF"/>
<path d="M22.8568 22.8558H9.14272C8.82716 22.8558 8.57129 22.6 8.57129 22.2843C8.57129 21.9688 8.8271 21.7129 9.14272 21.7129H22.8568C23.1723 21.7129 23.4282 21.9687 23.4282 22.2843C23.4281 22.6 23.1723 22.8558 22.8568 22.8558Z" fill="#428DFF"/>
<path d="M15.9997 31.9985C9.96618 31.9979 4.44591 28.6035 1.72265 23.2195C-1.00061 17.8354 -0.463749 11.3773 3.11106 6.51677C3.23199 6.35203 3.43174 6.2644 3.63486 6.28703C3.83798 6.30965 4.01354 6.43909 4.09523 6.62646C4.17691 6.81383 4.15229 7.03051 4.03066 7.19476C-0.490748 13.3423 0.38011 21.9153 6.04531 27.028C11.7105 32.1407 20.3278 32.1302 25.9806 27.0038C26.1318 26.8666 26.3447 26.8206 26.5391 26.8829C26.7335 26.9453 26.8798 27.1067 26.923 27.3062C26.9662 27.5057 26.8997 27.7131 26.7484 27.8503C23.8069 30.5229 19.9741 32.0021 15.9997 31.9985Z" fill="#428DFF"/>
<path d="M29.1937 24.5703C28.9873 24.5701 28.7972 24.4587 28.6961 24.2789C28.595 24.099 28.5988 23.8786 28.7059 23.7023C32.3585 17.6755 31.2752 9.91182 26.1124 5.1151C20.9496 0.31838 13.1273 -0.192047 7.38495 3.89325C7.21871 4.01168 7.00183 4.03237 6.81615 3.94762C6.63047 3.86281 6.50409 3.68544 6.48466 3.48219C6.46522 3.27901 6.55572 3.08083 6.72196 2.96245C12.9061 -1.43652 21.3296 -0.886597 26.8894 4.27905C32.4492 9.4447 33.6158 17.8052 29.6825 24.2955C29.5789 24.4664 29.3935 24.5705 29.1937 24.5703Z" fill="#428DFF"/>
<path d="M5.14284 5.71323C5.45843 5.71323 5.71426 5.45739 5.71426 5.1418C5.71426 4.82621 5.45843 4.57037 5.14284 4.57037C4.82725 4.57037 4.57141 4.82621 4.57141 5.1418C4.57141 5.45739 4.82725 5.71323 5.14284 5.71323Z" fill="#428DFF"/>
<path d="M27.9995 26.2843C28.3151 26.2843 28.571 26.0284 28.571 25.7128C28.571 25.3973 28.3151 25.1414 27.9995 25.1414C27.6839 25.1414 27.4281 25.3973 27.4281 25.7128C27.4281 26.0284 27.6839 26.2843 27.9995 26.2843Z" fill="#428DFF"/>
</svg>
